<svg width="60" height="60" viewBox="0 0 60 60" fill="none" xmlns="http://www.w3.org/2000/svg">
<path d="M9 12C9 10.3431 10.3431 9 12 9H33.7574C34.553 9 35.3161 9.31607 35.8787 9.87868L42.6378 16.6378C43.1907 17.1907 43.5058 17.9374 43.5163 18.7192L43.9595 51.96C43.9818 53.6323 42.6322 55 40.9597 55H12C10.3431 55 9 53.6569 9 52V12Z" fill="#DCDFFC"/>
<path d="M5 8C5 6.34315 6.34315 5 8 5H29.7574C30.553 5 31.3161 5.31607 31.8787 5.87868L38.6378 12.6378C39.1907 13.1907 39.5058 13.9374 39.5163 14.7192L39.9595 47.96C39.9818 49.6323 38.6322 51 36.9597 51H8C6.34315 51 5 49.6569 5 48V8Z" fill="#9199F8"/>
<path d="M30 33L11 33" stroke="#DCDFFC" stroke-width="2" stroke-linecap="round" stroke-linejoin="round"/>
<path d="M27 28H11" stroke="#DCDFFC" stroke-width="2" stroke-linecap="round" stroke-linejoin="round"/>
<path d="M23 23L11 23" stroke="#DCDFFC" stroke-width="2" stroke-linecap="round" stroke-linejoin="round"/>
<path d="M11 43.5499C11.1831 42.0947 12.1831 40.3931 13.04 40.0849C13.6893 39.8513 14.3728 40.1482 14.6831 40.3931C15.2801 40.8641 15.6151 41.3622 15.711 42.0947C15.7741 42.5766 15.7622 43.065 15.7622 43.5499C15.7622 43.6129 15.7476 44.0697 15.8134 44.0278C16.2608 43.7431 16.6248 43.2344 17.0424 42.9012C17.5675 42.4823 18.504 41.709 19.2357 42.0819C19.5202 42.2269 19.7508 42.478 20.0081 42.6623C20.5776 43.0701 21.2304 43.2653 21.9155 43.3834C23.8889 43.7237 25.8237 43.4039 27.7446 42.9354" stroke="#DCDFFC" stroke-width="2" stroke-linecap="round" stroke-linejoin="round"/>
<circle cx="42.5" cy="17.5" r="12.5" fill="#DCDFFC"/>
<path d="M39 17.6923L41.6667 20L47 15" stroke="#9199F8" stroke-width="2" stroke-linecap="round" stroke-linejoin="round"/>
</svg>
