<svg width="140" height="325" viewBox="0 0 140 325" fill="none" xmlns="http://www.w3.org/2000/svg">
<path d="M38.5 4.00001C35.4184 4.00001 30.39 4.00001 25.0023 4.00002C16.6 4.00002 12.3988 4.00003 9.19014 5.63493C6.36771 7.07303 4.073 9.36774 2.6349 12.1902C1 15.3988 1 19.5771 1 27.9335C1 83.769 0.999997 223.472 0.999999 297.052C0.999999 305.418 0.999999 309.601 2.6349 312.81C4.073 315.632 6.36771 317.927 9.19015 319.365C12.3988 321 16.5893 321 24.9704 321C62.5549 321 131.511 321 135.5 321" stroke="#E9F0F7" stroke-width="2"/>
<circle cx="42" cy="4" r="3" transform="rotate(180 42 4)" fill="white" stroke="#E9F0F7" stroke-width="2"/>
<circle cx="136" cy="321" r="3" transform="rotate(180 136 321)" fill="white" stroke="#E9F0F7" stroke-width="2"/>
</svg>
