<svg width="110" height="159" viewBox="0 0 110 159" fill="none" xmlns="http://www.w3.org/2000/svg">
<path d="M109.707 80.7071C110.098 80.3166 110.098 79.6834 109.707 79.2929L103.343 72.9289C102.953 72.5384 102.319 72.5384 101.929 72.9289C101.538 73.3195 101.538 73.9526 101.929 74.3431L107.586 80L101.929 85.6569C101.538 86.0474 101.538 86.6805 101.929 87.0711C102.319 87.4616 102.953 87.4616 103.343 87.0711L109.707 80.7071ZM0 81C31.1458 81 42.8229 81 54.5 81C66.1771 81 77.8542 81 109 81V79C77.8542 79 66.1771 79 54.5 79C42.8229 79 31.1458 79 0 79V81Z" fill="#E9F0F7"/>
<path d="M109.707 8.70711C110.098 8.31658 110.098 7.68342 109.707 7.29289L103.343 0.928932C102.953 0.538408 102.319 0.538408 101.929 0.928932C101.538 1.31946 101.538 1.95262 101.929 2.34315L107.586 8L101.929 13.6569C101.538 14.0474 101.538 14.6805 101.929 15.0711C102.319 15.4616 102.953 15.4616 103.343 15.0711L109.707 8.70711ZM0 81C15.7929 81 26.7244 76.4269 35.183 69.5248C43.597 62.659 49.5159 53.5204 55.3389 44.5442C61.193 35.5204 66.9512 26.659 75.0814 20.0248C83.1671 13.4269 93.647 9 109 9V7C93.2071 7 82.2756 11.5731 73.817 18.4752C65.403 25.341 59.4841 34.4796 53.6611 43.4558C47.807 52.4796 42.0488 61.341 33.9186 67.9752C25.8329 74.5731 15.353 79 0 79V81Z" fill="#E9F0F7"/>
<path d="M109.707 152.207C110.098 151.817 110.098 151.183 109.707 150.793L103.343 144.429C102.953 144.038 102.319 144.038 101.929 144.429C101.538 144.819 101.538 145.453 101.929 145.843L107.586 151.5L101.929 157.157C101.538 157.547 101.538 158.181 101.929 158.571C102.319 158.962 102.953 158.962 103.343 158.571L109.707 152.207ZM0 81C15.3548 81 25.8356 85.3968 33.9212 91.9488C42.051 98.5366 47.8088 107.336 53.6628 116.297C59.4859 125.211 65.4052 134.287 73.8196 141.105C82.2783 147.959 93.2089 152.5 109 152.5V150.5C93.6452 150.5 83.1644 146.103 75.0788 139.551C66.949 132.963 61.1912 124.164 55.3372 115.203C49.5141 106.289 43.5948 97.2134 35.1804 90.3949C26.7217 83.5407 15.791 79 0 79V81Z" fill="#E9F0F7"/>
</svg>
