<svg width="100" height="185" viewBox="0 0 100 185" fill="none" xmlns="http://www.w3.org/2000/svg">
<path d="M92.7071 184.707C92.3166 185.098 91.6834 185.098 91.2929 184.707L84.9289 178.343C84.5384 177.953 84.5384 177.319 84.9289 176.929C85.3195 176.538 85.9526 176.538 86.3432 176.929L92 182.586L97.6569 176.929C98.0474 176.538 98.6805 176.538 99.0711 176.929C99.4616 177.319 99.4616 177.953 99.0711 178.343L92.7071 184.707ZM5 4.5C5 27.8696 10.4554 44.7961 18.6097 58.5205C26.7813 72.2739 37.6832 82.8529 48.6961 93.5321C59.6832 104.186 70.7813 114.941 79.1097 128.958C87.4554 143.004 93 160.286 93 184L91 184C91 160.63 85.5446 143.704 77.3903 129.98C69.2187 116.226 58.3168 105.647 47.3039 94.9679C36.3168 84.3137 25.2187 73.5595 16.8903 59.542C8.5446 45.4956 3 28.2137 3 4.5L5 4.5Z" fill="#E9F0F7"/>
<circle cx="4" cy="4" r="3" transform="matrix(4.37114e-08 1 1 -4.37114e-08 0 0)" fill="white" stroke="#E9F0F7" stroke-width="2"/>
</svg>
