<svg width="181" height="97" viewBox="0 0 181 97" fill="none" xmlns="http://www.w3.org/2000/svg">
<path d="M180.707 89.7071C181.098 89.3166 181.098 88.6834 180.707 88.2929L174.343 81.9289C173.953 81.5384 173.319 81.5384 172.929 81.9289C172.538 82.3195 172.538 82.9526 172.929 83.3431L178.586 89L172.929 94.6569C172.538 95.0474 172.538 95.6805 172.929 96.0711C173.319 96.4616 173.953 96.4616 174.343 96.0711L180.707 89.7071ZM0.5 2C23.8696 2 40.7961 7.4554 54.5205 15.6097C68.2739 23.7813 78.8529 34.6832 89.5321 45.6961C100.186 56.6832 110.941 67.7813 124.958 76.1097C139.004 84.4554 156.286 90 180 90V88C156.63 88 139.704 82.5446 125.98 74.3903C112.226 66.2187 101.647 55.3168 90.9679 44.3039C80.3138 33.3168 69.5595 22.2187 55.542 13.8903C41.4956 5.5446 24.2137 0 0.5 0V2Z" fill="#E9F0F7"/>
</svg>
