<svg width="159" height="110" viewBox="0 0 159 110" fill="none" xmlns="http://www.w3.org/2000/svg">
<path d="M78.7929 109.707C79.1834 110.098 79.8166 110.098 80.2071 109.707L86.5711 103.343C86.9616 102.953 86.9616 102.319 86.5711 101.929C86.1805 101.538 85.5474 101.538 85.1568 101.929L79.5 107.586L73.8431 101.929C73.4526 101.538 72.8195 101.538 72.4289 101.929C72.0384 102.319 72.0384 102.953 72.4289 103.343L78.7929 109.707ZM78.5 -4.37114e-08C78.5 31.1458 78.5 42.8229 78.5 54.5C78.5 66.1771 78.5 77.8542 78.5 109L80.5 109C80.5 77.8542 80.5 66.1771 80.5 54.5C80.5 42.8229 80.5 31.1458 80.5 4.37114e-08L78.5 -4.37114e-08Z" fill="#E9F0F7"/>
<path d="M150.793 109.707C151.183 110.098 151.817 110.098 152.207 109.707L158.571 103.343C158.962 102.953 158.962 102.319 158.571 101.929C158.181 101.538 157.547 101.538 157.157 101.929L151.5 107.586L145.843 101.929C145.453 101.538 144.819 101.538 144.429 101.929C144.038 102.319 144.038 102.953 144.429 103.343L150.793 109.707ZM78.5 -3.19093e-06C78.5 15.7929 83.0731 26.7244 89.9752 35.183C96.841 43.597 105.98 49.5159 114.956 55.3389C123.98 61.193 132.841 66.9512 139.475 75.0814C146.073 83.1671 150.5 93.647 150.5 109L152.5 109C152.5 93.2071 147.927 82.2756 141.025 73.817C134.159 65.403 125.02 59.4841 116.044 53.6611C107.02 47.807 98.159 42.0488 91.5248 33.9186C84.9269 25.8329 80.5 15.353 80.5 -3.10351e-06L78.5 -3.19093e-06Z" fill="#E9F0F7"/>
<path d="M7.29289 109.707C7.68341 110.098 8.31658 110.098 8.7071 109.707L15.0711 103.343C15.4616 102.953 15.4616 102.319 15.0711 101.929C14.6805 101.538 14.0474 101.538 13.6568 101.929L8 107.586L2.34314 101.929C1.95262 101.538 1.31945 101.538 0.928928 101.929C0.538402 102.319 0.538402 102.953 0.928928 103.343L7.29289 109.707ZM78.5 -4.37114e-08C78.5 15.3548 74.1032 25.8356 67.5512 33.9212C60.9634 42.051 52.1642 47.8088 43.2031 53.6628C34.2892 59.4859 25.2134 65.4052 18.3949 73.8196C11.5407 82.2783 7 93.2089 7 109L9 109C9 93.6452 13.3968 83.1644 19.9488 75.0788C26.5366 66.949 35.3358 61.1912 44.2969 55.3372C53.2108 49.5141 62.2866 43.5948 69.1051 35.1804C75.9593 26.7217 80.5 15.7911 80.5 4.37114e-08L78.5 -4.37114e-08Z" fill="#E9F0F7"/>
</svg>
