<svg width="100" height="185" viewBox="0 0 100 185" fill="none" xmlns="http://www.w3.org/2000/svg">
<path d="M7.29288 184.707C7.68341 185.098 8.31657 185.098 8.7071 184.707L15.0711 178.343C15.4616 177.953 15.4616 177.319 15.0711 176.929C14.6805 176.538 14.0474 176.538 13.6568 176.929L7.99999 182.586L2.34314 176.929C1.95261 176.538 1.31945 176.538 0.928925 176.929C0.538399 177.319 0.538399 177.953 0.928925 178.343L7.29288 184.707ZM95 4.5C95 27.8696 89.5446 44.7961 81.3903 58.5205C73.2187 72.2739 62.3168 82.8529 51.3039 93.5321C40.3168 104.186 29.2187 114.941 20.8903 128.958C12.5446 143.004 6.99999 160.286 6.99999 184L8.99999 184C8.99999 160.63 14.4554 143.704 22.6097 129.98C30.7813 116.226 41.6832 105.647 52.6961 94.9679C63.6832 84.3137 74.7813 73.5595 83.1097 59.542C91.4554 45.4956 97 28.2137 97 4.5L95 4.5Z" fill="#E9F0F7"/>
<circle cx="96" cy="4" r="3" transform="rotate(90 96 4)" fill="white" stroke="#E9F0F7" stroke-width="2"/>
</svg>
