<svg width="186" height="16" viewBox="0 0 186 16" fill="none" xmlns="http://www.w3.org/2000/svg">
<path d="M185.207 8.70711C185.598 8.31658 185.598 7.68342 185.207 7.29289L178.843 0.928932C178.453 0.538408 177.819 0.538408 177.429 0.928932C177.038 1.31946 177.038 1.95262 177.429 2.34315L183.086 8L177.429 13.6569C177.038 14.0474 177.038 14.6805 177.429 15.0711C177.819 15.4616 178.453 15.4616 178.843 15.0711L185.207 8.70711ZM4 9C4.18392 9 4.36745 9 4.55059 9C4.73373 9 4.91649 9 5.09886 9C5.28123 9 5.46321 9 5.64481 9C5.82641 9 6.00762 9 6.18845 9C6.36928 9 6.54973 9 6.7298 9C6.90986 9 7.08955 9 7.26885 9C7.44816 9 7.62708 9 7.80563 9C7.98417 9 8.16234 9 8.34013 9C8.51792 9 8.69534 9 8.87238 9C9.04942 9 9.22608 9 9.40237 9C9.57866 9 9.75457 9 9.93012 9C10.1057 9 10.2808 9 10.4556 9C10.6304 9 10.8049 9 10.9789 9C11.153 9 11.3267 9 11.5 9C11.6733 9 11.8463 9 12.0189 9C12.1914 9 12.3637 9 12.5355 9C12.7074 9 12.8789 9 13.05 9C13.2211 9 13.3919 9 13.5623 9C13.7327 9 13.9027 9 14.0724 9C14.2421 9 14.4114 9 14.5804 9C14.7494 9 14.918 9 15.0862 9C15.2545 9 15.4223 9 15.5899 9C15.7574 9 15.9246 9 16.0914 9C16.2582 9 16.4247 9 16.5908 9C16.757 9 16.9227 9 17.0881 9C17.2535 9 17.4186 9 17.5833 9C17.748 9 17.9124 9 18.0764 9C18.2404 9 18.4041 9 18.5674 9C18.7307 9 18.8937 9 19.0563 9C19.219 9 19.3813 9 19.5432 9C19.7051 9 19.8667 9 20.028 9C20.1893 9 20.3502 9 20.5107 9C20.6713 9 20.8315 9 20.9914 9C21.1513 9 21.3109 9 21.4701 9C21.6293 9 21.7882 9 21.9468 9C22.1053 9 22.2635 9 22.4214 9C22.5793 9 22.7368 9 22.894 9C23.0512 9 23.2081 9 23.3646 9C23.5212 9 23.6774 9 23.8333 9C23.9891 9 24.1447 9 24.2999 9C24.4551 9 24.61 9 24.7646 9C24.9192 9 25.0734 9 25.2273 9C25.3812 9 25.5348 9 25.6881 9C25.8414 9 25.9943 9 26.1469 9C26.2995 9 26.4518 9 26.6038 9C26.7558 9 26.9075 9 27.0588 9C27.2101 9 27.3612 9 27.5119 9C27.6626 9 27.8129 9 27.963 9C28.1131 9 28.2628 9 28.4123 9C28.5617 9 28.7108 9 28.8596 9C29.0084 9 29.1569 9 29.3051 9C29.4533 9 29.6012 9 29.7487 9C29.8963 9 30.0436 9 30.1905 9C30.3375 9 30.4841 9 30.6304 9C30.7767 9 30.9228 9 31.0685 9C31.2142 9 31.3596 9 31.5047 9C31.6498 9 31.7946 9 31.9391 9C32.0836 9 32.2278 9 32.3717 9C32.5156 9 32.6592 9 32.8025 9C32.9458 9 33.0888 9 33.2315 9C33.3742 9 33.5166 9 33.6587 9C33.8008 9 33.9426 9 34.0841 9C34.2256 9 34.3669 9 34.5078 9C34.6487 9 34.7893 9 34.9297 9C35.07 9 35.2101 9 35.3498 9C35.4896 9 35.6291 9 35.7682 9C35.9074 9 36.0463 9 36.1849 9C36.3235 9 36.4618 9 36.5999 9C36.7379 9 36.8756 9 37.0131 9C37.1506 9 37.2877 9 37.4246 9C37.5615 9 37.6981 9 37.8345 9C37.9708 9 38.1068 9 38.2426 9C38.3784 9 38.5139 9 38.6491 9C38.7843 9 38.9192 9 39.0539 9C39.1885 9 39.3229 9 39.457 9C39.5911 9 39.7249 9 39.8585 9C39.992 9 40.1253 9 40.2583 9C40.3913 9 40.5241 9 40.6566 9C40.789 9 40.9212 9 41.0531 9C41.1851 9 41.3167 9 41.4481 9C41.5795 9 41.7106 9 41.8415 9C41.9723 9 42.1029 9 42.2333 9C42.3636 9 42.4937 9 42.6235 9C42.7533 9 42.8828 9 43.0121 9C43.1413 9 43.2704 9 43.3991 9C43.5279 9 43.6564 9 43.7846 9C43.9128 9 44.0408 9 44.1685 9C44.2962 9 44.4237 9 44.5509 9C44.6781 9 44.8051 9 44.9318 9C45.0585 9 45.1849 9 45.3111 9C45.4373 9 45.5632 9 45.6889 9C45.8146 9 45.9401 9 46.0653 9C46.1904 9 46.3154 9 46.4401 9C46.5648 9 46.6892 9 46.8134 9C46.9376 9 47.0616 9 47.1853 9C47.309 9 47.4324 9 47.5557 9C47.6789 9 47.8019 9 47.9246 9C48.0473 9 48.1698 9 48.2921 9C48.4143 9 48.5363 9 48.6581 9C48.7799 9 48.9014 9 49.0227 9C49.144 9 49.2651 9 49.3859 9C49.5067 9 49.6273 9 49.7477 9C49.868 9 49.9882 9 50.1081 9C50.2279 9 50.3476 9 50.467 9C50.5865 9 50.7056 9 50.8246 9C50.9436 9 51.0623 9 51.1808 9C51.2993 9 51.4176 9 51.5357 9C51.6537 9 51.7715 9 51.8891 9C52.0067 9 52.1241 9 52.2413 9C52.3584 9 52.4754 9 52.5921 9C52.7088 9 52.8253 9 52.9415 9C53.0578 9 53.1738 9 53.2897 9C53.4055 9 53.5211 9 53.6365 9C53.7519 9 53.8671 9 53.982 9C54.097 9 54.2117 9 54.3262 9C54.4408 9 54.5551 9 54.6692 9C54.7833 9 54.8972 9 55.0108 9C55.1245 9 55.238 9 55.3512 9C55.4645 9 55.5775 9 55.6904 9C55.8032 9 55.9159 9 56.0283 9C56.1407 9 56.2529 9 56.3649 9C56.4769 9 56.5887 9 56.7003 9C56.8119 9 56.9233 9 57.0345 9C57.1457 9 57.2567 9 57.3675 9C57.4783 9 57.5889 9 57.6993 9C57.8097 9 57.9199 9 58.0299 9C58.1399 9 58.2497 9 58.3593 9C58.4689 9 58.5783 9 58.6875 9C58.7967 9 58.9057 9 59.0146 9C59.1234 9 59.232 9 59.3405 9C59.4489 9 59.5571 9 59.6652 9C59.7733 9 59.8811 9 59.9888 9C60.0965 9 60.204 9 60.3113 9C60.4186 9 60.5257 9 60.6326 9C60.7396 9 60.8463 9 60.9529 9C61.0594 9 61.1658 9 61.272 9C61.3782 9 61.4842 9 61.5901 9C61.6959 9 61.8015 9 61.907 9C62.0125 9 62.1178 9 62.2229 9C62.328 9 62.433 9 62.5377 9C62.6425 9 62.7471 9 62.8515 9C62.9559 9 63.0601 9 63.1642 9C63.2683 9 63.3721 9 63.4759 9C63.5796 9 63.6831 9 63.7865 9C63.8899 9 63.9931 9 64.0961 9C64.1992 9 64.302 9 64.4047 9C64.5074 9 64.61 9 64.7123 9C64.8147 9 64.9169 9 65.0189 9C65.121 9 65.2228 9 65.3246 9C65.4263 9 65.5278 9 65.6292 9C65.7306 9 65.8318 9 65.9329 9C66.034 9 66.1349 9 66.2356 9C66.3364 9 66.437 9 66.5374 9C66.6378 9 66.7381 9 66.8382 9C66.9383 9 67.0383 9 67.1381 9C67.2379 9 67.3376 9 67.4371 9C67.5366 9 67.636 9 67.7352 9C67.8344 9 67.9334 9 68.0324 9C68.1313 9 68.23 9 68.3286 9C68.4272 9 68.5257 9 68.624 9C68.7223 9 68.8205 9 68.9185 9C69.0166 9 69.1144 9 69.2122 9C69.3099 9 69.4075 9 69.505 9C69.6024 9 69.6998 9 69.7969 9C69.8941 9 69.9911 9 70.088 9C70.1849 9 70.2817 9 70.3783 9C70.4749 9 70.5714 9 70.6678 9C70.7641 9 70.8603 9 70.9564 9C71.0525 9 71.1484 9 71.2442 9C71.3401 9 71.4357 9 71.5313 9C71.6268 9 71.7223 9 71.8176 9C71.9128 9 72.008 9 72.103 9C72.1981 9 72.293 9 72.3878 9C72.4825 9 72.5772 9 72.6717 9C72.7663 9 72.8607 9 72.9549 9C73.0492 9 73.1434 9 73.2374 9C73.3315 9 73.4254 9 73.5192 9C73.613 9 73.7066 9 73.8002 9C73.8938 9 73.9872 9 74.0805 9C74.1738 9 74.267 9 74.3601 9C74.4532 9 74.5462 9 74.6391 9C74.7319 9 74.8247 9 74.9173 9C75.0099 9 75.1024 9 75.1949 9C75.2873 9 75.3796 9 75.4718 9C75.5639 9 75.656 9 75.748 9C75.84 9 75.9318 9 76.0236 9C76.1153 9 76.207 9 76.2985 9C76.3901 9 76.4815 9 76.5729 9C76.6642 9 76.7554 9 76.8466 9C76.9377 9 77.0287 9 77.1197 9C77.2106 9 77.3014 9 77.3922 9C77.4829 9 77.5735 9 77.6641 9C77.7546 9 77.845 9 77.9354 9C78.0257 9 78.116 9 78.2061 9C78.2963 9 78.3863 9 78.4763 9C78.5663 9 78.6561 9 78.7459 9C78.8357 9 78.9254 9 79.015 9C79.1046 9 79.1941 9 79.2835 9C79.3729 9 79.4623 9 79.5515 9C79.6408 9 79.7299 9 79.819 9C79.9081 9 79.9971 9 80.086 9C80.1749 9 80.2637 9 80.3525 9C80.4412 9 80.5299 9 80.6184 9C80.707 9 80.7955 9 80.8839 9C80.9724 9 81.0607 9 81.149 9C81.2372 9 81.3254 9 81.4135 9C81.5016 9 81.5897 9 81.6776 9C81.7656 9 81.8535 9 81.9413 9C82.0291 9 82.1168 9 82.2045 9C82.2922 9 82.3798 9 82.4673 9C82.5548 9 82.6423 9 82.7297 9C82.817 9 82.9044 9 82.9916 9C83.0789 9 83.1661 9 83.2532 9C83.3403 9 83.4274 9 83.5143 9C83.6013 9 83.6883 9 83.7751 9C83.862 9 83.9488 9 84.0355 9C84.1223 9 84.209 9 84.2956 9C84.3822 9 84.4688 9 84.5553 9C84.6418 9 84.7282 9 84.8146 9C84.901 9 84.9873 9 85.0736 9C85.1599 9 85.2461 9 85.3323 9C85.4185 9 85.5046 9 85.5907 9C85.6767 9 85.7627 9 85.8487 9C85.9347 9 86.0206 9 86.1064 9C86.1923 9 86.2781 9 86.3639 9C86.4497 9 86.5354 9 86.6211 9C86.7067 9 86.7924 9 86.878 9C86.9636 9 87.0491 9 87.1346 9C87.2201 9 87.3056 9 87.391 9C87.4764 9 87.5618 9 87.6471 9C87.7325 9 87.8177 9 87.903 9C87.9883 9 88.0735 9 88.1587 9C88.2439 9 88.329 9 88.4141 9C88.4992 9 88.5843 9 88.6694 9C88.7544 9 88.8394 9 88.9244 9C89.0094 9 89.0943 9 89.1792 9C89.2642 9 89.3491 9 89.4339 9C89.5188 9 89.6036 9 89.6884 9C89.7732 9 89.858 9 89.9427 9C90.0275 9 90.1122 9 90.1969 9C90.2816 9 90.3663 9 90.4509 9C90.5356 9 90.6202 9 90.7048 9C90.7894 9 90.874 9 90.9586 9C91.0431 9 91.1277 9 91.2122 9C91.2967 9 91.3813 9 91.4658 9C91.5502 9 91.6347 9 91.7192 9C91.8036 9 91.8881 9 91.9725 9C92.057 9 92.1414 9 92.2258 9C92.3102 9 92.3946 9 92.479 9C92.5634 9 92.6477 9 92.7321 9C92.8165 9 92.9008 9 92.9852 9C93.0695 9 93.1538 9 93.2382 9C93.3225 9 93.4068 9 93.4912 9C93.5755 9 93.6598 9 93.7441 9C93.8284 9 93.9128 9 93.9971 9C94.0814 9 94.1657 9 94.25 9C94.3343 9 94.4186 9 94.5029 9C94.5872 9 94.6716 9 94.7559 9C94.8402 9 94.9245 9 95.0088 9C95.0932 9 95.1775 9 95.2618 9C95.3462 9 95.4305 9 95.5148 9C95.5992 9 95.6835 9 95.7679 9C95.8523 9 95.9366 9 96.021 9C96.1054 9 96.1898 9 96.2742 9C96.3586 9 96.443 9 96.5275 9C96.6119 9 96.6964 9 96.7808 9C96.8653 9 96.9498 9 97.0342 9C97.1187 9 97.2033 9 97.2878 9C97.3723 9 97.4569 9 97.5414 9C97.626 9 97.7106 9 97.7952 9C97.8798 9 97.9644 9 98.0491 9C98.1337 9 98.2184 9 98.3031 9C98.3878 9 98.4725 9 98.5573 9C98.642 9 98.7268 9 98.8116 9C98.8964 9 98.9812 9 99.0661 9C99.1509 9 99.2358 9 99.3208 9C99.4057 9 99.4906 9 99.5756 9C99.6606 9 99.7456 9 99.8306 9C99.9157 9 100.001 9 100.086 9C100.171 9 100.256 9 100.341 9C100.427 9 100.512 9 100.597 9C100.682 9 100.768 9 100.853 9C100.938 9 101.024 9 101.109 9C101.194 9 101.28 9 101.365 9C101.451 9 101.536 9 101.622 9C101.708 9 101.793 9 101.879 9C101.965 9 102.05 9 102.136 9C102.222 9 102.308 9 102.394 9C102.479 9 102.565 9 102.651 9C102.737 9 102.823 9 102.909 9C102.995 9 103.082 9 103.168 9C103.254 9 103.34 9 103.426 9C103.513 9 103.599 9 103.685 9C103.772 9 103.858 9 103.945 9C104.031 9 104.118 9 104.204 9C104.291 9 104.378 9 104.464 9C104.551 9 104.638 9 104.725 9C104.812 9 104.899 9 104.986 9C105.073 9 105.16 9 105.247 9C105.334 9 105.421 9 105.508 9C105.596 9 105.683 9 105.77 9C105.858 9 105.945 9 106.033 9C106.12 9 106.208 9 106.296 9C106.383 9 106.471 9 106.559 9C106.647 9 106.734 9 106.822 9C106.91 9 106.998 9 107.086 9C107.175 9 107.263 9 107.351 9C107.439 9 107.528 9 107.616 9C107.704 9 107.793 9 107.882 9C107.97 9 108.059 9 108.148 9C108.236 9 108.325 9 108.414 9C108.503 9 108.592 9 108.681 9C108.77 9 108.859 9 108.948 9C109.038 9 109.127 9 109.216 9C109.306 9 109.395 9 109.485 9C109.575 9 109.664 9 109.754 9C109.844 9 109.934 9 110.024 9C110.114 9 110.204 9 110.294 9C110.384 9 110.474 9 110.565 9C110.655 9 110.745 9 110.836 9C110.926 9 111.017 9 111.108 9C111.199 9 111.289 9 111.38 9C111.471 9 111.562 9 111.653 9C111.745 9 111.836 9 111.927 9C112.018 9 112.11 9 112.201 9C112.293 9 112.385 9 112.476 9C112.568 9 112.66 9 112.752 9C112.844 9 112.936 9 113.028 9C113.12 9 113.213 9 113.305 9C113.398 9 113.49 9 113.583 9C113.675 9 113.768 9 113.861 9C113.954 9 114.047 9 114.14 9C114.233 9 114.326 9 114.419 9C114.513 9 114.606 9 114.7 9C114.793 9 114.887 9 114.981 9C115.075 9 115.169 9 115.263 9C115.357 9 115.451 9 115.545 9C115.639 9 115.734 9 115.828 9C115.923 9 116.017 9 116.112 9C116.207 9 116.302 9 116.397 9C116.492 9 116.587 9 116.682 9C116.778 9 116.873 9 116.969 9C117.064 9 117.16 9 117.256 9C117.352 9 117.448 9 117.544 9C117.64 9 117.736 9 117.832 9C117.929 9 118.025 9 118.122 9C118.218 9 118.315 9 118.412 9C118.509 9 118.606 9 118.703 9C118.8 9 118.898 9 118.995 9C119.092 9 119.19 9 119.288 9C119.386 9 119.483 9 119.581 9C119.679 9 119.778 9 119.876 9C119.974 9 120.073 9 120.171 9C120.27 9 120.369 9 120.468 9C120.567 9 120.666 9 120.765 9C120.864 9 120.963 9 121.063 9C121.162 9 121.262 9 121.362 9C121.462 9 121.562 9 121.662 9C121.762 9 121.862 9 121.963 9C122.063 9 122.164 9 122.264 9C122.365 9 122.466 9 122.567 9C122.668 9 122.769 9 122.871 9C122.972 9 123.074 9 123.175 9C123.277 9 123.379 9 123.481 9C123.583 9 123.685 9 123.788 9C123.89 9 123.993 9 124.095 9C124.198 9 124.301 9 124.404 9C124.507 9 124.61 9 124.714 9C124.817 9 124.92 9 125.024 9C125.128 9 125.232 9 125.336 9C125.44 9 125.544 9 125.649 9C125.753 9 125.858 9 125.962 9C126.067 9 126.172 9 126.277 9C126.382 9 126.488 9 126.593 9C126.698 9 126.804 9 126.91 9C127.016 9 127.122 9 127.228 9C127.334 9 127.441 9 127.547 9C127.654 9 127.76 9 127.867 9C127.974 9 128.081 9 128.189 9C128.296 9 128.404 9 128.511 9C128.619 9 128.727 9 128.835 9C128.943 9 129.051 9 129.16 9C129.268 9 129.377 9 129.485 9C129.594 9 129.703 9 129.812 9C129.922 9 130.031 9 130.141 9C130.25 9 130.36 9 130.47 9C130.58 9 130.69 9 130.801 9C130.911 9 131.022 9 131.132 9C131.243 9 131.354 9 131.465 9C131.577 9 131.688 9 131.8 9C131.911 9 132.023 9 132.135 9C132.247 9 132.359 9 132.472 9C132.584 9 132.697 9 132.81 9C132.922 9 133.035 9 133.149 9C133.262 9 133.375 9 133.489 9C133.603 9 133.717 9 133.831 9C133.945 9 134.059 9 134.174 9C134.288 9 134.403 9 134.518 9C134.633 9 134.748 9 134.863 9C134.979 9 135.094 9 135.21 9C135.326 9 135.442 9 135.558 9C135.675 9 135.791 9 135.908 9C136.025 9 136.142 9 136.259 9C136.376 9 136.493 9 136.611 9C136.728 9 136.846 9 136.964 9C137.082 9 137.201 9 137.319 9C137.438 9 137.556 9 137.675 9C137.794 9 137.914 9 138.033 9C138.152 9 138.272 9 138.392 9C138.512 9 138.632 9 138.752 9C138.873 9 138.993 9 139.114 9C139.235 9 139.356 9 139.477 9C139.599 9 139.72 9 139.842 9C139.964 9 140.086 9 140.208 9C140.33 9 140.453 9 140.575 9C140.698 9 140.821 9 140.944 9C141.068 9 141.191 9 141.315 9C141.438 9 141.562 9 141.687 9C141.811 9 141.935 9 142.06 9C142.185 9 142.31 9 142.435 9C142.56 9 142.685 9 142.811 9C142.937 9 143.063 9 143.189 9C143.315 9 143.442 9 143.568 9C143.695 9 143.822 9 143.949 9C144.076 9 144.204 9 144.331 9C144.459 9 144.587 9 144.715 9C144.844 9 144.972 9 145.101 9C145.23 9 145.359 9 145.488 9C145.617 9 145.747 9 145.877 9C146.006 9 146.136 9 146.267 9C146.397 9 146.528 9 146.659 9C146.789 9 146.92 9 147.052 9C147.183 9 147.315 9 147.447 9C147.579 9 147.711 9 147.843 9C147.976 9 148.109 9 148.242 9C148.375 9 148.508 9 148.642 9C148.775 9 148.909 9 149.043 9C149.177 9 149.311 9 149.446 9C149.581 9 149.716 9 149.851 9C149.986 9 150.122 9 150.257 9C150.393 9 150.529 9 150.666 9C150.802 9 150.938 9 151.075 9C151.212 9 151.349 9 151.487 9C151.624 9 151.762 9 151.9 9C152.038 9 152.176 9 152.315 9C152.454 9 152.593 9 152.732 9C152.871 9 153.01 9 153.15 9C153.29 9 153.43 9 153.57 9C153.711 9 153.851 9 153.992 9C154.133 9 154.274 9 154.416 9C154.557 9 154.699 9 154.841 9C154.983 9 155.126 9 155.268 9C155.411 9 155.554 9 155.697 9C155.841 9 155.984 9 156.128 9C156.272 9 156.416 9 156.561 9C156.705 9 156.85 9 156.995 9C157.14 9 157.286 9 157.432 9C157.577 9 157.723 9 157.87 9C158.016 9 158.163 9 158.309 9C158.456 9 158.604 9 158.751 9C158.899 9 159.047 9 159.195 9C159.343 9 159.492 9 159.64 9C159.789 9 159.938 9 160.088 9C160.237 9 160.387 9 160.537 9C160.687 9 160.837 9 160.988 9C161.139 9 161.29 9 161.441 9C161.593 9 161.744 9 161.896 9C162.048 9 162.2 9 162.353 9C162.506 9 162.659 9 162.812 9C162.965 9 163.119 9 163.273 9C163.427 9 163.581 9 163.735 9C163.89 9 164.045 9 164.2 9C164.355 9 164.511 9 164.667 9C164.823 9 164.979 9 165.135 9C165.292 9 165.449 9 165.606 9C165.763 9 165.921 9 166.079 9C166.236 9 166.395 9 166.553 9C166.712 9 166.871 9 167.03 9C167.189 9 167.349 9 167.509 9C167.668 9 167.829 9 167.989 9C168.15 9 168.311 9 168.472 9C168.633 9 168.795 9 168.957 9C169.119 9 169.281 9 169.444 9C169.606 9 169.769 9 169.933 9C170.096 9 170.26 9 170.424 9C170.588 9 170.752 9 170.917 9C171.081 9 171.246 9 171.412 9C171.577 9 171.743 9 171.909 9C172.075 9 172.242 9 172.409 9C172.575 9 172.743 9 172.91 9C173.078 9 173.246 9 173.414 9C173.582 9 173.751 9 173.92 9C174.089 9 174.258 9 174.428 9C174.597 9 174.767 9 174.938 9C175.108 9 175.279 9 175.45 9C175.621 9 175.793 9 175.964 9C176.136 9 176.309 9 176.481 9C176.654 9 176.827 9 177 9C177.173 9 177.347 9 177.521 9C177.695 9 177.87 9 178.044 9C178.219 9 178.394 9 178.57 9C178.745 9 178.921 9 179.098 9C179.274 9 179.451 9 179.628 9C179.805 9 179.982 9 180.16 9C180.338 9 180.516 9 180.694 9C180.873 9 181.052 9 181.231 9C181.41 9 181.59 9 181.77 9C181.95 9 182.131 9 182.312 9C182.492 9 182.674 9 182.855 9C183.037 9 183.219 9 183.401 9C183.584 9 183.766 9 183.949 9C184.133 9 184.316 9 184.5 9V7C184.316 7 184.133 7 183.949 7C183.766 7 183.584 7 183.401 7C183.219 7 183.037 7 182.855 7C182.674 7 182.492 7 182.312 7C182.131 7 181.95 7 181.77 7C181.59 7 181.41 7 181.231 7C181.052 7 180.873 7 180.694 7C180.516 7 180.338 7 180.16 7C179.982 7 179.805 7 179.628 7C179.451 7 179.274 7 179.098 7C178.921 7 178.745 7 178.57 7C178.394 7 178.219 7 178.044 7C177.87 7 177.695 7 177.521 7C177.347 7 177.173 7 177 7C176.827 7 176.654 7 176.481 7C176.309 7 176.136 7 175.964 7C175.793 7 175.621 7 175.45 7C175.279 7 175.108 7 174.938 7C174.767 7 174.597 7 174.428 7C174.258 7 174.089 7 173.92 7C173.751 7 173.582 7 173.414 7C173.246 7 173.078 7 172.91 7C172.743 7 172.575 7 172.409 7C172.242 7 172.075 7 171.909 7C171.743 7 171.577 7 171.412 7C171.246 7 171.081 7 170.917 7C170.752 7 170.588 7 170.424 7C170.26 7 170.096 7 169.933 7C169.769 7 169.606 7 169.444 7C169.281 7 169.119 7 168.957 7C168.795 7 168.633 7 168.472 7C168.311 7 168.15 7 167.989 7C167.829 7 167.668 7 167.509 7C167.349 7 167.189 7 167.03 7C166.871 7 166.712 7 166.553 7C166.395 7 166.236 7 166.079 7C165.921 7 165.763 7 165.606 7C165.449 7 165.292 7 165.135 7C164.979 7 164.823 7 164.667 7C164.511 7 164.355 7 164.2 7C164.045 7 163.89 7 163.735 7C163.581 7 163.427 7 163.273 7C163.119 7 162.965 7 162.812 7C162.659 7 162.506 7 162.353 7C162.2 7 162.048 7 161.896 7C161.744 7 161.593 7 161.441 7C161.29 7 161.139 7 160.988 7C160.837 7 160.687 7 160.537 7C160.387 7 160.237 7 160.088 7C159.938 7 159.789 7 159.64 7C159.492 7 159.343 7 159.195 7C159.047 7 158.899 7 158.751 7C158.604 7 158.456 7 158.309 7C158.163 7 158.016 7 157.87 7C157.723 7 157.577 7 157.432 7C157.286 7 157.14 7 156.995 7C156.85 7 156.705 7 156.561 7C156.416 7 156.272 7 156.128 7C155.984 7 155.841 7 155.697 7C155.554 7 155.411 7 155.268 7C155.126 7 154.983 7 154.841 7C154.699 7 154.557 7 154.416 7C154.274 7 154.133 7 153.992 7C153.851 7 153.711 7 153.57 7C153.43 7 153.29 7 153.15 7C153.01 7 152.871 7 152.732 7C152.593 7 152.454 7 152.315 7C152.176 7 152.038 7 151.9 7C151.762 7 151.624 7 151.487 7C151.349 7 151.212 7 151.075 7C150.938 7 150.802 7 150.666 7C150.529 7 150.393 7 150.257 7C150.122 7 149.986 7 149.851 7C149.716 7 149.581 7 149.446 7C149.311 7 149.177 7 149.043 7C148.909 7 148.775 7 148.642 7C148.508 7 148.375 7 148.242 7C148.109 7 147.976 7 147.843 7C147.711 7 147.579 7 147.447 7C147.315 7 147.183 7 147.052 7C146.92 7 146.789 7 146.659 7C146.528 7 146.397 7 146.267 7C146.136 7 146.006 7 145.877 7C145.747 7 145.617 7 145.488 7C145.359 7 145.23 7 145.101 7C144.972 7 144.844 7 144.715 7C144.587 7 144.459 7 144.331 7C144.204 7 144.076 7 143.949 7C143.822 7 143.695 7 143.568 7C143.442 7 143.315 7 143.189 7C143.063 7 142.937 7 142.811 7C142.685 7 142.56 7 142.435 7C142.31 7 142.185 7 142.06 7C141.935 7 141.811 7 141.687 7C141.562 7 141.438 7 141.315 7C141.191 7 141.068 7 140.944 7C140.821 7 140.698 7 140.575 7C140.453 7 140.33 7 140.208 7C140.086 7 139.964 7 139.842 7C139.72 7 139.599 7 139.477 7C139.356 7 139.235 7 139.114 7C138.993 7 138.873 7 138.752 7C138.632 7 138.512 7 138.392 7C138.272 7 138.152 7 138.033 7C137.914 7 137.794 7 137.675 7C137.556 7 137.438 7 137.319 7C137.201 7 137.082 7 136.964 7C136.846 7 136.728 7 136.611 7C136.493 7 136.376 7 136.259 7C136.142 7 136.025 7 135.908 7C135.791 7 135.675 7 135.558 7C135.442 7 135.326 7 135.21 7C135.094 7 134.979 7 134.863 7C134.748 7 134.633 7 134.518 7C134.403 7 134.288 7 134.174 7C134.059 7 133.945 7 133.831 7C133.717 7 133.603 7 133.489 7C133.375 7 133.262 7 133.149 7C133.035 7 132.922 7 132.81 7C132.697 7 132.584 7 132.472 7C132.359 7 132.247 7 132.135 7C132.023 7 131.911 7 131.8 7C131.688 7 131.577 7 131.465 7C131.354 7 131.243 7 131.132 7C131.022 7 130.911 7 130.801 7C130.69 7 130.58 7 130.47 7C130.36 7 130.25 7 130.141 7C130.031 7 129.922 7 129.812 7C129.703 7 129.594 7 129.485 7C129.377 7 129.268 7 129.16 7C129.051 7 128.943 7 128.835 7C128.727 7 128.619 7 128.511 7C128.404 7 128.296 7 128.189 7C128.081 7 127.974 7 127.867 7C127.76 7 127.654 7 127.547 7C127.441 7 127.334 7 127.228 7C127.122 7 127.016 7 126.91 7C126.804 7 126.698 7 126.593 7C126.488 7 126.382 7 126.277 7C126.172 7 126.067 7 125.962 7C125.858 7 125.753 7 125.649 7C125.544 7 125.44 7 125.336 7C125.232 7 125.128 7 125.024 7C124.92 7 124.817 7 124.714 7C124.61 7 124.507 7 124.404 7C124.301 7 124.198 7 124.095 7C123.993 7 123.89 7 123.788 7C123.685 7 123.583 7 123.481 7C123.379 7 123.277 7 123.175 7C123.074 7 122.972 7 122.871 7C122.769 7 122.668 7 122.567 7C122.466 7 122.365 7 122.264 7C122.164 7 122.063 7 121.963 7C121.862 7 121.762 7 121.662 7C121.562 7 121.462 7 121.362 7C121.262 7 121.162 7 121.063 7C120.963 7 120.864 7 120.765 7C120.666 7 120.567 7 120.468 7C120.369 7 120.27 7 120.171 7C120.073 7 119.974 7 119.876 7C119.778 7 119.679 7 119.581 7C119.483 7 119.386 7 119.288 7C119.19 7 119.092 7 118.995 7C118.898 7 118.8 7 118.703 7C118.606 7 118.509 7 118.412 7C118.315 7 118.218 7 118.122 7C118.025 7 117.929 7 117.832 7C117.736 7 117.64 7 117.544 7C117.448 7 117.352 7 117.256 7C117.16 7 117.064 7 116.969 7C116.873 7 116.778 7 116.682 7C116.587 7 116.492 7 116.397 7C116.302 7 116.207 7 116.112 7C116.017 7 115.923 7 115.828 7C115.734 7 115.639 7 115.545 7C115.451 7 115.357 7 115.263 7C115.169 7 115.075 7 114.981 7C114.887 7 114.793 7 114.7 7C114.606 7 114.513 7 114.419 7C114.326 7 114.233 7 114.14 7C114.047 7 113.954 7 113.861 7C113.768 7 113.675 7 113.583 7C113.49 7 113.398 7 113.305 7C113.213 7 113.12 7 113.028 7C112.936 7 112.844 7 112.752 7C112.66 7 112.568 7 112.476 7C112.385 7 112.293 7 112.201 7C112.11 7 112.018 7 111.927 7C111.836 7 111.745 7 111.653 7C111.562 7 111.471 7 111.38 7C111.289 7 111.199 7 111.108 7C111.017 7 110.926 7 110.836 7C110.745 7 110.655 7 110.565 7C110.474 7 110.384 7 110.294 7C110.204 7 110.114 7 110.024 7C109.934 7 109.844 7 109.754 7C109.664 7 109.575 7 109.485 7C109.395 7 109.306 7 109.216 7C109.127 7 109.038 7 108.948 7C108.859 7 108.77 7 108.681 7C108.592 7 108.503 7 108.414 7C108.325 7 108.236 7 108.148 7C108.059 7 107.97 7 107.882 7C107.793 7 107.704 7 107.616 7C107.528 7 107.439 7 107.351 7C107.263 7 107.175 7 107.086 7C106.998 7 106.91 7 106.822 7C106.734 7 106.647 7 106.559 7C106.471 7 106.383 7 106.296 7C106.208 7 106.12 7 106.033 7C105.945 7 105.858 7 105.77 7C105.683 7 105.596 7 105.508 7C105.421 7 105.334 7 105.247 7C105.16 7 105.073 7 104.986 7C104.899 7 104.812 7 104.725 7C104.638 7 104.551 7 104.464 7C104.378 7 104.291 7 104.204 7C104.118 7 104.031 7 103.945 7C103.858 7 103.772 7 103.685 7C103.599 7 103.513 7 103.426 7C103.34 7 103.254 7 103.168 7C103.082 7 102.995 7 102.909 7C102.823 7 102.737 7 102.651 7C102.565 7 102.479 7 102.394 7C102.308 7 102.222 7 102.136 7C102.05 7 101.965 7 101.879 7C101.793 7 101.708 7 101.622 7C101.536 7 101.451 7 101.365 7C101.28 7 101.194 7 101.109 7C101.024 7 100.938 7 100.853 7C100.768 7 100.682 7 100.597 7C100.512 7 100.427 7 100.341 7C100.256 7 100.171 7 100.086 7C100.001 7 99.9157 7 99.8306 7C99.7456 7 99.6606 7 99.5756 7C99.4906 7 99.4057 7 99.3208 7C99.2358 7 99.1509 7 99.0661 7C98.9812 7 98.8964 7 98.8116 7C98.7268 7 98.642 7 98.5573 7C98.4725 7 98.3878 7 98.3031 7C98.2184 7 98.1337 7 98.0491 7C97.9644 7 97.8798 7 97.7952 7C97.7106 7 97.626 7 97.5414 7C97.4569 7 97.3723 7 97.2878 7C97.2033 7 97.1187 7 97.0342 7C96.9498 7 96.8653 7 96.7808 7C96.6964 7 96.6119 7 96.5275 7C96.443 7 96.3586 7 96.2742 7C96.1898 7 96.1054 7 96.021 7C95.9366 7 95.8523 7 95.7679 7C95.6835 7 95.5992 7 95.5148 7C95.4305 7 95.3462 7 95.2618 7C95.1775 7 95.0932 7 95.0088 7C94.9245 7 94.8402 7 94.7559 7C94.6716 7 94.5872 7 94.5029 7C94.4186 7 94.3343 7 94.25 7C94.1657 7 94.0814 7 93.9971 7C93.9128 7 93.8284 7 93.7441 7C93.6598 7 93.5755 7 93.4912 7C93.4068 7 93.3225 7 93.2382 7C93.1538 7 93.0695 7 92.9852 7C92.9008 7 92.8165 7 92.7321 7C92.6477 7 92.5634 7 92.479 7C92.3946 7 92.3102 7 92.2258 7C92.1414 7 92.057 7 91.9725 7C91.8881 7 91.8036 7 91.7192 7C91.6347 7 91.5502 7 91.4658 7C91.3813 7 91.2967 7 91.2122 7C91.1277 7 91.0431 7 90.9586 7C90.874 7 90.7894 7 90.7048 7C90.6202 7 90.5356 7 90.4509 7C90.3663 7 90.2816 7 90.1969 7C90.1122 7 90.0275 7 89.9427 7C89.858 7 89.7732 7 89.6884 7C89.6036 7 89.5188 7 89.4339 7C89.3491 7 89.2642 7 89.1792 7C89.0943 7 89.0094 7 88.9244 7C88.8394 7 88.7544 7 88.6694 7C88.5843 7 88.4992 7 88.4141 7C88.329 7 88.2439 7 88.1587 7C88.0735 7 87.9883 7 87.903 7C87.8177 7 87.7325 7 87.6471 7C87.5618 7 87.4764 7 87.391 7C87.3056 7 87.2201 7 87.1346 7C87.0491 7 86.9636 7 86.878 7C86.7924 7 86.7067 7 86.6211 7C86.5354 7 86.4497 7 86.3639 7C86.2781 7 86.1923 7 86.1064 7C86.0206 7 85.9347 7 85.8487 7C85.7627 7 85.6767 7 85.5907 7C85.5046 7 85.4185 7 85.3323 7C85.2461 7 85.1599 7 85.0736 7C84.9873 7 84.901 7 84.8146 7C84.7282 7 84.6418 7 84.5553 7C84.4688 7 84.3822 7 84.2956 7C84.209 7 84.1223 7 84.0355 7C83.9488 7 83.862 7 83.7751 7C83.6883 7 83.6013 7 83.5143 7C83.4274 7 83.3403 7 83.2532 7C83.1661 7 83.0789 7 82.9916 7C82.9044 7 82.817 7 82.7297 7C82.6423 7 82.5548 7 82.4673 7C82.3798 7 82.2922 7 82.2045 7C82.1168 7 82.0291 7 81.9413 7C81.8535 7 81.7656 7 81.6776 7C81.5897 7 81.5016 7 81.4135 7C81.3254 7 81.2372 7 81.149 7C81.0607 7 80.9724 7 80.8839 7C80.7955 7 80.707 7 80.6184 7C80.5299 7 80.4412 7 80.3525 7C80.2637 7 80.1749 7 80.086 7C79.9971 7 79.9081 7 79.819 7C79.7299 7 79.6408 7 79.5515 7C79.4623 7 79.3729 7 79.2835 7C79.1941 7 79.1046 7 79.015 7C78.9254 7 78.8357 7 78.7459 7C78.6561 7 78.5663 7 78.4763 7C78.3863 7 78.2963 7 78.2061 7C78.116 7 78.0257 7 77.9354 7C77.845 7 77.7546 7 77.6641 7C77.5735 7 77.4829 7 77.3922 7C77.3014 7 77.2106 7 77.1197 7C77.0287 7 76.9377 7 76.8466 7C76.7554 7 76.6642 7 76.5729 7C76.4815 7 76.3901 7 76.2985 7C76.207 7 76.1153 7 76.0236 7C75.9318 7 75.84 7 75.748 7C75.656 7 75.5639 7 75.4718 7C75.3796 7 75.2873 7 75.1949 7C75.1024 7 75.0099 7 74.9173 7C74.8247 7 74.7319 7 74.6391 7C74.5462 7 74.4532 7 74.3601 7C74.267 7 74.1738 7 74.0805 7C73.9872 7 73.8938 7 73.8002 7C73.7066 7 73.613 7 73.5192 7C73.4254 7 73.3315 7 73.2374 7C73.1434 7 73.0492 7 72.9549 7C72.8607 7 72.7663 7 72.6717 7C72.5772 7 72.4825 7 72.3878 7C72.293 7 72.1981 7 72.103 7C72.008 7 71.9128 7 71.8176 7C71.7223 7 71.6268 7 71.5313 7C71.4357 7 71.3401 7 71.2442 7C71.1484 7 71.0525 7 70.9564 7C70.8603 7 70.7641 7 70.6678 7C70.5714 7 70.4749 7 70.3783 7C70.2817 7 70.1849 7 70.088 7C69.9911 7 69.8941 7 69.7969 7C69.6998 7 69.6024 7 69.505 7C69.4075 7 69.3099 7 69.2122 7C69.1144 7 69.0166 7 68.9185 7C68.8205 7 68.7223 7 68.624 7C68.5257 7 68.4272 7 68.3286 7C68.23 7 68.1313 7 68.0324 7C67.9334 7 67.8344 7 67.7352 7C67.636 7 67.5366 7 67.4371 7C67.3376 7 67.2379 7 67.1381 7C67.0383 7 66.9383 7 66.8382 7C66.7381 7 66.6378 7 66.5374 7C66.437 7 66.3364 7 66.2356 7C66.1349 7 66.034 7 65.9329 7C65.8318 7 65.7306 7 65.6292 7C65.5278 7 65.4263 7 65.3246 7C65.2228 7 65.121 7 65.0189 7C64.9169 7 64.8147 7 64.7123 7C64.61 7 64.5074 7 64.4047 7C64.302 7 64.1992 7 64.0961 7C63.9931 7 63.8899 7 63.7865 7C63.6831 7 63.5796 7 63.4759 7C63.3721 7 63.2683 7 63.1642 7C63.0601 7 62.9559 7 62.8515 7C62.7471 7 62.6425 7 62.5377 7C62.433 7 62.328 7 62.2229 7C62.1178 7 62.0125 7 61.907 7C61.8015 7 61.6959 7 61.5901 7C61.4842 7 61.3782 7 61.272 7C61.1658 7 61.0594 7 60.9529 7C60.8463 7 60.7396 7 60.6326 7C60.5257 7 60.4186 7 60.3113 7C60.204 7 60.0965 7 59.9888 7C59.8811 7 59.7733 7 59.6652 7C59.5571 7 59.4489 7 59.3405 7C59.232 7 59.1234 7 59.0146 7C58.9057 7 58.7967 7 58.6875 7C58.5783 7 58.4689 7 58.3593 7C58.2497 7 58.1399 7 58.0299 7C57.9199 7 57.8097 7 57.6993 7C57.5889 7 57.4783 7 57.3675 7C57.2567 7 57.1457 7 57.0345 7C56.9233 7 56.8119 7 56.7003 7C56.5887 7 56.4769 7 56.3649 7C56.2529 7 56.1407 7 56.0283 7C55.9159 7 55.8032 7 55.6904 7C55.5775 7 55.4645 7 55.3512 7C55.238 7 55.1245 7 55.0108 7C54.8972 7 54.7833 7 54.6692 7C54.5551 7 54.4408 7 54.3262 7C54.2117 7 54.097 7 53.982 7C53.8671 7 53.7519 7 53.6365 7C53.5211 7 53.4055 7 53.2897 7C53.1738 7 53.0578 7 52.9415 7C52.8253 7 52.7088 7 52.5921 7C52.4754 7 52.3584 7 52.2413 7C52.1241 7 52.0067 7 51.8891 7C51.7715 7 51.6537 7 51.5357 7C51.4176 7 51.2993 7 51.1808 7C51.0623 7 50.9436 7 50.8246 7C50.7056 7 50.5865 7 50.467 7C50.3476 7 50.2279 7 50.1081 7C49.9882 7 49.868 7 49.7477 7C49.6273 7 49.5067 7 49.3859 7C49.2651 7 49.144 7 49.0227 7C48.9014 7 48.7799 7 48.6581 7C48.5363 7 48.4143 7 48.2921 7C48.1698 7 48.0473 7 47.9246 7C47.8019 7 47.6789 7 47.5557 7C47.4324 7 47.309 7 47.1853 7C47.0616 7 46.9376 7 46.8134 7C46.6892 7 46.5648 7 46.4401 7C46.3154 7 46.1904 7 46.0653 7C45.9401 7 45.8146 7 45.6889 7C45.5632 7 45.4373 7 45.3111 7C45.1849 7 45.0585 7 44.9318 7C44.8051 7 44.6781 7 44.5509 7C44.4237 7 44.2962 7 44.1685 7C44.0408 7 43.9128 7 43.7846 7C43.6564 7 43.5279 7 43.3991 7C43.2704 7 43.1413 7 43.0121 7C42.8828 7 42.7533 7 42.6235 7C42.4937 7 42.3636 7 42.2333 7C42.1029 7 41.9723 7 41.8415 7C41.7106 7 41.5795 7 41.4481 7C41.3167 7 41.1851 7 41.0531 7C40.9212 7 40.789 7 40.6566 7C40.5241 7 40.3913 7 40.2583 7C40.1253 7 39.992 7 39.8585 7C39.7249 7 39.5911 7 39.457 7C39.3229 7 39.1885 7 39.0539 7C38.9192 7 38.7843 7 38.6491 7C38.5139 7 38.3784 7 38.2426 7C38.1068 7 37.9708 7 37.8345 7C37.6981 7 37.5615 7 37.4246 7C37.2877 7 37.1506 7 37.0131 7C36.8756 7 36.7379 7 36.5999 7C36.4618 7 36.3235 7 36.1849 7C36.0463 7 35.9074 7 35.7682 7C35.6291 7 35.4896 7 35.3498 7C35.2101 7 35.07 7 34.9297 7C34.7893 7 34.6487 7 34.5078 7C34.3669 7 34.2256 7 34.0841 7C33.9426 7 33.8008 7 33.6587 7C33.5166 7 33.3742 7 33.2315 7C33.0888 7 32.9458 7 32.8025 7C32.6592 7 32.5156 7 32.3717 7C32.2278 7 32.0836 7 31.9391 7C31.7946 7 31.6498 7 31.5047 7C31.3596 7 31.2142 7 31.0685 7C30.9228 7 30.7767 7 30.6304 7C30.4841 7 30.3375 7 30.1905 7C30.0436 7 29.8963 7 29.7487 7C29.6012 7 29.4533 7 29.3051 7C29.1569 7 29.0084 7 28.8596 7C28.7108 7 28.5617 7 28.4123 7C28.2628 7 28.1131 7 27.963 7C27.8129 7 27.6626 7 27.5119 7C27.3612 7 27.2101 7 27.0588 7C26.9075 7 26.7558 7 26.6038 7C26.4518 7 26.2995 7 26.1469 7C25.9943 7 25.8414 7 25.6881 7C25.5348 7 25.3812 7 25.2273 7C25.0734 7 24.9192 7 24.7646 7C24.61 7 24.4551 7 24.2999 7C24.1447 7 23.9891 7 23.8333 7C23.6774 7 23.5212 7 23.3646 7C23.2081 7 23.0512 7 22.894 7C22.7368 7 22.5793 7 22.4214 7C22.2635 7 22.1053 7 21.9468 7C21.7882 7 21.6293 7 21.4701 7C21.3109 7 21.1513 7 20.9914 7C20.8315 7 20.6713 7 20.5107 7C20.3502 7 20.1893 7 20.028 7C19.8667 7 19.7051 7 19.5432 7C19.3813 7 19.219 7 19.0563 7C18.8937 7 18.7307 7 18.5674 7C18.4041 7 18.2404 7 18.0764 7C17.9124 7 17.748 7 17.5833 7C17.4186 7 17.2535 7 17.0881 7C16.9227 7 16.757 7 16.5908 7C16.4247 7 16.2582 7 16.0914 7C15.9246 7 15.7574 7 15.5899 7C15.4223 7 15.2545 7 15.0862 7C14.918 7 14.7494 7 14.5804 7C14.4114 7 14.2421 7 14.0724 7C13.9027 7 13.7327 7 13.5623 7C13.3919 7 13.2211 7 13.05 7C12.8789 7 12.7074 7 12.5355 7C12.3637 7 12.1914 7 12.0189 7C11.8463 7 11.6733 7 11.5 7C11.3267 7 11.153 7 10.9789 7C10.8049 7 10.6304 7 10.4556 7C10.2808 7 10.1057 7 9.93012 7C9.75457 7 9.57866 7 9.40237 7C9.22608 7 9.04942 7 8.87238 7C8.69534 7 8.51792 7 8.34013 7C8.16234 7 7.98417 7 7.80563 7C7.62708 7 7.44816 7 7.26885 7C7.08955 7 6.90986 7 6.7298 7C6.54973 7 6.36928 7 6.18845 7C6.00762 7 5.82641 7 5.64481 7C5.46321 7 5.28123 7 5.09886 7C4.91649 7 4.73373 7 4.55059 7C4.36745 7 4.18392 7 4 7V9Z" fill="#E9F0F7"/>
<circle cx="4" cy="8" r="3" fill="white" stroke="#E9F0F7" stroke-width="2"/>
</svg>
