<svg width="20" height="20" viewBox="0 0 20 20" fill="none" xmlns="http://www.w3.org/2000/svg">
<g clip-path="url(#clip0_473_31481)">
<path d="M18.3167 8.38274C17.8705 8.38274 17.5088 8.74445 17.5088 9.19063V10.0043C17.5076 12.1269 16.6798 14.122 15.1781 15.622C13.6774 17.1209 11.6833 17.9462 9.56242 17.9462C9.56086 17.9462 9.5593 17.9462 9.55774 17.9462C5.17602 17.9437 1.61328 14.377 1.61578 9.9952C1.61699 7.87266 2.44473 5.87758 3.94652 4.3775C5.44719 2.87859 7.44137 2.05328 9.56219 2.05328C9.56375 2.05328 9.56531 2.05328 9.56688 2.05328C10.6869 2.05391 11.7735 2.28539 12.7966 2.74121C13.2042 2.92285 13.6817 2.73961 13.8633 2.33207C14.0449 1.92453 13.8618 1.44695 13.4542 1.26531C12.2231 0.716758 10.9155 0.438242 9.56777 0.4375C9.56574 0.4375 9.56418 0.4375 9.56215 0.4375C7.01024 0.4375 4.61031 1.43078 2.80461 3.23438C0.997501 5.03938 0.00148595 7.44012 1.5752e-06 9.99434C-0.00144374 12.5485 0.991759 14.9504 2.79684 16.7575C4.60192 18.5646 7.00262 19.5606 9.5568 19.5621C9.55879 19.5621 9.56039 19.5621 9.56242 19.5621C12.1143 19.5621 14.5143 18.5688 16.32 16.7652C18.1271 14.9602 19.1231 12.5594 19.1246 10.0048V9.19067C19.1246 8.74445 18.7629 8.38274 18.3167 8.38274Z" fill="#CFD2E5"/>
<path d="M19.7642 1.55496C19.4487 1.23949 18.9371 1.23949 18.6216 1.55496L9.56308 10.6135L7.50804 8.55844C7.19257 8.24293 6.68101 8.24293 6.36554 8.55844C6.05003 8.87394 6.05003 9.38547 6.36554 9.70098L8.99187 12.3273C9.1496 12.4851 9.3564 12.5639 9.56315 12.5639C9.76991 12.5639 9.97667 12.4851 10.1344 12.3273L19.7642 2.6975C20.0797 2.38199 20.0797 1.87047 19.7642 1.55496Z" fill="#CFD2E5"/>
</g>
<defs>
<clipPath id="clip0_473_31481">
<rect width="20" height="20" fill="white"/>
</clipPath>
</defs>
</svg>
