<svg width="40" height="40" viewBox="0 0 40 40" fill="none" xmlns="http://www.w3.org/2000/svg">
<path d="M15.6167 36.5163C16.1664 36.8316 16.8336 36.8316 17.3833 36.5163C20.3839 34.7953 30 28.6086 30 20V9.4824C30 8.65049 29.485 7.90546 28.7068 7.61146L17.2068 3.26701C16.7513 3.09494 16.2487 3.09494 15.7932 3.26701L4.2932 7.61146C3.51497 7.90546 3 8.65049 3 9.4824V20C3 28.6086 12.6161 34.7953 15.6167 36.5163Z" fill="#DCDFFC"/>
<path d="M15.5929 31.4704C16.1531 31.8174 16.8469 31.8174 17.4071 31.4704C19.782 29.9991 26 25.5677 26 19.5V12.1107C26 11.2896 25.4981 10.5519 24.7343 10.2504L17.2343 7.28987C16.7625 7.10362 16.2375 7.10362 15.7657 7.28987L8.26567 10.2504C7.50189 10.5519 7 11.2896 7 12.1107V19.5C7 25.5677 13.218 29.9991 15.5929 31.4704Z" stroke="#9199F8" stroke-width="2" stroke-linecap="round" stroke-linejoin="round"/>
<circle cx="29" cy="29" r="8" fill="#9199F8"/>
<path d="M26 29L28 31L32 27" stroke="#DCDFFC" stroke-width="2" stroke-linecap="round" stroke-linejoin="round"/>
</svg>
