<svg width="60" height="60" viewBox="0 0 60 60" fill="none" xmlns="http://www.w3.org/2000/svg">
<path d="M5.00117 33C5.00117 27.4772 9.47833 23 15.0012 23H17.9988C23.5217 23 27.9988 27.4772 27.9988 33V37.28C27.9988 37.28 28.3582 40 16.5 40C4.64183 40 5.00117 37.28 5.00117 37.28V33Z" fill="#DCDFFC"/>
<path d="M32.0012 33C32.0012 27.4772 36.4783 23 42.0012 23H44.9988C50.5217 23 54.9988 27.4772 54.9988 33V37.28C54.9988 37.28 55.3582 40 43.5 40C31.6418 40 32.0012 37.28 32.0012 37.28V33Z" fill="#DCDFFC"/>
<ellipse cx="16.5" cy="13" rx="6.5" ry="8" fill="#DCDFFC"/>
<ellipse cx="43.5" cy="13" rx="6.5" ry="8" fill="#DCDFFC"/>
<path d="M14.0016 46C14.0016 38.268 20.2696 32 28.0016 32H31.9984C39.7304 32 45.9984 38.268 45.9984 46V51.32C45.9984 51.32 46.4983 55 30 55C13.5017 55 14.0016 51.32 14.0016 51.32V46Z" fill="#9199F8"/>
<mask id="mask0_473_31577" style="mask-type:alpha" maskUnits="userSpaceOnUse" x="14" y="32" width="32" height="23">
<path d="M14.0016 46C14.0016 38.268 20.2696 32 28.0016 32H31.9984C39.7304 32 45.9984 38.268 45.9984 46V51.32C45.9984 51.32 46.4983 55 30 55C13.5017 55 14.0016 51.32 14.0016 51.32V46Z" fill="#9199F8"/>
</mask>
<g mask="url(#mask0_473_31577)">
<path d="M27 36L28.4 37.8667C29.2 38.9333 30.8 38.9333 31.6 37.8667L33 36" stroke="#DCDFFC" stroke-width="2" stroke-linecap="round"/>
<path d="M29.0338 39.6234L26.1108 50.5845C26.0401 50.8498 26.0815 51.1324 26.2254 51.3662L29.1483 56.1161C29.5388 56.7506 30.4612 56.7506 30.8517 56.1161L33.7746 51.3662C33.9185 51.1324 33.9599 50.8498 33.8892 50.5845L30.9662 39.6234C30.7023 38.6336 29.2977 38.6336 29.0338 39.6234Z" fill="#DCDFFC"/>
</g>
<ellipse cx="30" cy="20" rx="9" ry="10" fill="#9199F8"/>
</svg>
