<svg width="40" height="40" viewBox="0 0 40 40" fill="none" xmlns="http://www.w3.org/2000/svg">
<path d="M22 8.6C22 8.03995 22 7.75992 22.109 7.54601C22.2049 7.35785 22.3578 7.20487 22.546 7.10899C22.7599 7 23.0399 7 23.6 7H34.5839C35.6736 7 36.2185 7 36.4935 7.22221C36.7325 7.41539 36.8695 7.70776 36.8648 8.01508C36.8595 8.36858 36.5107 8.78715 35.8131 9.6243L33.8536 11.9757C33.5499 12.3401 33.3981 12.5223 33.3401 12.7257C33.2889 12.905 33.2889 13.095 33.3401 13.2743C33.3981 13.4777 33.5499 13.6599 33.8536 14.0243L35.8131 16.3757C36.5107 17.2128 36.8595 17.6314 36.8648 17.9849C36.8695 18.2922 36.7325 18.5846 36.4935 18.7778C36.2185 19 35.6736 19 34.5839 19H23.6C23.0399 19 22.7599 19 22.546 18.891C22.3578 18.7951 22.2049 18.6422 22.109 18.454C22 18.2401 22 17.9601 22 17.4V8.6Z" fill="#D1F0E4"/>
<path d="M3 7.8C3 6.11984 3 5.27976 3.32698 4.63803C3.6146 4.07354 4.07354 3.6146 4.63803 3.32698C5.27976 3 6.11984 3 7.8 3H23.8C24.9201 3 25.4802 3 25.908 3.21799C26.2843 3.40973 26.5903 3.71569 26.782 4.09202C27 4.51984 27 5.0799 27 6.2V34H3V7.8Z" fill="#62CCA6"/>
<path d="M7 7L7 26" stroke="#D1F0E4" stroke-width="2" stroke-linecap="round" stroke-linejoin="round"/>
<path d="M3 33.5C3 31.567 4.567 30 6.5 30H27V33.8C27 34.9201 27 35.4802 26.782 35.908C26.5903 36.2843 26.2843 36.5903 25.908 36.782C25.4802 37 24.9201 37 23.8 37H6.5C4.567 37 3 35.433 3 33.5Z" fill="#D1F0E4"/>
</svg>
