<svg width="40" height="40" viewBox="0 0 40 40" fill="none" xmlns="http://www.w3.org/2000/svg">
<path d="M34 11V20" stroke="#D1F0E4" stroke-width="2" stroke-linecap="round"/>
<rect x="3" y="24" width="34" height="13" rx="2" fill="#D1F0E4"/>
<path d="M3 26C3 24.8954 3.89543 24 5 24H35C36.1046 24 37 24.8954 37 26V30H3V26Z" fill="#62CCA6"/>
<path d="M13 33L27 33" stroke="#62CCA6" stroke-width="2" stroke-linecap="round" stroke-linejoin="round"/>
<path d="M19.7345 3.09657C20.0274 2.96789 20.3665 2.96781 20.6595 3.09633L36.376 9.99138C37.2057 10.3554 37.2086 11.4555 36.3809 11.8232L20.4495 18.9015C20.1572 19.0314 19.8181 19.0329 19.5245 18.9055L3.62825 12.0105C2.79285 11.6481 2.78994 10.541 3.62341 10.1749L19.7345 3.09657Z" fill="#62CCA6"/>
<path d="M9 14.3414V19.4858C9 20.4308 9.24871 21.3719 9.8386 22.1101C12.2207 25.0912 15.8873 27.0009 20 27.0009C24.1127 27.0009 27.7793 25.0912 30.1614 22.1101C30.7513 21.3719 31 20.4308 31 19.4858V14.2148L20.4495 18.9024C20.1572 19.0323 19.8181 19.0338 19.5245 18.9064L9 14.3414Z" fill="#D1F0E4"/>
</svg>
