<svg width="40" height="40" viewBox="0 0 40 40" fill="none" xmlns="http://www.w3.org/2000/svg">
<path d="M3 10.415C3 9.56706 3.53474 8.81127 4.33436 8.52905L19.0015 3.3524C19.6477 3.12436 20.3524 3.12436 20.9985 3.3524L35.6656 8.52905C36.4653 8.81127 37 9.56706 37 10.415V13C37 13.5523 36.5523 14 36 14H4C3.44772 14 3 13.5523 3 13V10.415Z" fill="#9199F8"/>
<rect x="7" y="16" width="6" height="14" fill="#9199F8"/>
<rect x="25" y="16" width="6" height="14" fill="#9199F8"/>
<path d="M5 16C5 16.5523 5.44772 17 6 17H14C14.5523 17 15 16.5523 15 16V14H5V16Z" fill="#DCDFFC"/>
<rect x="3" y="30" width="34" height="7" rx="2" fill="#DCDFFC"/>
<path d="M23 16C23 16.5523 23.4477 17 24 17H32C32.5523 17 33 16.5523 33 16V14H23V16Z" fill="#DCDFFC"/>
<circle cx="20" cy="9" r="2" fill="#DCDFFC"/>
</svg>
