<svg width="40" height="40" viewBox="0 0 40 40" fill="none" xmlns="http://www.w3.org/2000/svg">
<rect x="9" y="25" width="24" height="12" rx="3" fill="#9199F8"/>
<path d="M3 11.8C3 10.1198 3 9.27976 3.32698 8.63803C3.6146 8.07354 4.07354 7.6146 4.63803 7.32698C5.27976 7 6.11984 7 7.8 7H22.2C23.8802 7 24.7202 7 25.362 7.32698C25.9265 7.6146 26.3854 8.07354 26.673 8.63803C27 9.27976 27 10.1198 27 11.8V37H7.8C6.11984 37 5.27976 37 4.63803 36.673C4.07354 36.3854 3.6146 35.9265 3.32698 35.362C3 34.7202 3 33.8802 3 32.2V11.8Z" fill="#DCDFFC"/>
<path d="M21 23L7 23" stroke="#9199F8" stroke-width="2" stroke-linecap="round" stroke-linejoin="round"/>
<path d="M21 27L7 27" stroke="#9199F8" stroke-width="2" stroke-linecap="round" stroke-linejoin="round"/>
<path d="M12 31L7 31" stroke="#9199F8" stroke-width="2" stroke-linecap="round" stroke-linejoin="round"/>
<path d="M29 37C27.8954 37 27 36.1046 27 35V37H29Z" fill="#FAD4E4"/>
<rect x="21" y="3" width="16" height="16" rx="3" fill="#9199F8"/>
<circle cx="29" cy="11" r="4" stroke="#DCDFFC" stroke-width="2"/>
</svg>
