<svg width="60" height="60" viewBox="0 0 60 60" fill="none" xmlns="http://www.w3.org/2000/svg">
<rect width="60" height="60" rx="30" fill="#FDF4F8"/>
<path d="M25.6167 46.5163C26.1664 46.8316 26.8336 46.8316 27.3833 46.5163C30.3839 44.7953 40 38.6086 40 30V19.4824C40 18.6505 39.485 17.9055 38.7068 17.6115L27.2068 13.267C26.7513 13.0949 26.2487 13.0949 25.7932 13.267L14.2932 17.6115C13.515 17.9055 13 18.6505 13 19.4824V30C13 38.6086 22.6161 44.7953 25.6167 46.5163Z" fill="#FAD4E4"/>
<path d="M25.5929 41.4704C26.1531 41.8174 26.8469 41.8174 27.4071 41.4704C29.782 39.9991 36 35.5677 36 29.5V22.1107C36 21.2896 35.4981 20.5519 34.7343 20.2504L27.2343 17.2899C26.7625 17.1036 26.2375 17.1036 25.7657 17.2899L18.2657 20.2504C17.5019 20.5519 17 21.2896 17 22.1107V29.5C17 35.5677 23.218 39.9991 25.5929 41.4704Z" stroke="#F073A8" stroke-width="2" stroke-linecap="round" stroke-linejoin="round"/>
<circle cx="39" cy="39" r="8" fill="#F073A8"/>
<path d="M36 39L38 41L42 37" stroke="#FAD4E4" stroke-width="2" stroke-linecap="round" stroke-linejoin="round"/>
</svg>
