<svg width="60" height="60" viewBox="0 0 60 60" fill="none" xmlns="http://www.w3.org/2000/svg">
<rect width="60" height="60" rx="30" fill="#F6F1FB"/>
<path d="M31 34H34C35.6569 34 37 35.3431 37 37V44C37 45.6569 35.6569 47 34 47C32.3431 47 31 45.6569 31 44V34Z" fill="#8D51D8"/>
<path d="M22.4184 26.6V31.3999H15.4796C15.1242 31.396 14.7722 31.4677 14.4479 31.6102C14.1237 31.7527 13.8349 31.9624 13.6017 32.225C13.3685 32.4875 13.1963 32.7965 13.0972 33.1306C12.9981 33.4648 12.9744 33.816 13.0278 34.1599L14.7196 44.9599C14.8082 45.5321 15.1052 46.0538 15.5558 46.4287C16.0063 46.8035 16.5801 47.0064 17.1714 46.9998H28C29.6569 46.9998 31 45.6567 31 43.9998V33.7999L26.0963 23C25.1208 23 24.1854 23.3793 23.4956 24.0544C22.8059 24.7295 22.4184 25.6452 22.4184 26.6Z" fill="#DBC9F2"/>
<circle cx="39" cy="21" r="8" fill="#8D51D8"/>
<path d="M36 21L38 23L42 19" stroke="#DBC9F2" stroke-width="2" stroke-linecap="round" stroke-linejoin="round"/>
</svg>
